<?xml version="1.0" standalone="no"?>
<!DOCTYPE svg PUBLIC "-//W3C//DTD SVG 1.1//EN" "http://www.w3.org/Graphics/SVG/1.1/DTD/svg11.dtd" >
<!--
2013-9-30: Created.
-->
<svg>
<metadata>
Created by iconfont
</metadata>
<defs>

<font id="iconfont" horiz-adv-x="1024" >
  <font-face
    font-family="iconfont"
    font-weight="500"
    font-stretch="normal"
    units-per-em="1024"
    ascent="896"
    descent="-128"
  />
    <missing-glyph />
    
    <glyph glyph-name="xiangxia" unicode="&#58880;" d="M857.088 671.744q28.672 28.672 69.12 28.672t69.12-28.672q29.696-28.672 29.696-68.608t-29.696-68.608l-382.976-380.928q-12.288-14.336-30.72-19.968t-38.912-4.608-40.448 8.704-34.304 22.016l-376.832 374.784q-29.696 28.672-29.696 68.608t29.696 68.608q14.336 14.336 32.256 21.504t36.864 7.168 37.376-7.168 32.768-21.504l313.344-309.248z"  horiz-adv-x="1026" />

    
    <glyph glyph-name="een1" unicode="&#58887;" d="M457.931059 565.924535 457.931059 565.924535c14.174837 14.052041 33.873482 22.269189 54.004985 22.269189l0 0c20.262486 0 39.896662-8.216125 54.135968-22.269189l369.966123-370.09506 0 0c29.865191-29.858028 29.865191-78.347392 0-108.204397l0 0c-29.913287-29.79356-78.218456-29.79356-108.075461 0L511.936043 403.46342 196.163193 87.625078l0 0c-29.984918-29.797653-78.285994-29.797653-108.204397 0.127913l0 0c-29.863145 29.730115-29.863145 78.219479 0 108.076484L457.931059 565.924535 457.931059 565.924535zM457.931059 565.924535"  horiz-adv-x="1024" />

    
    <glyph glyph-name="star" unicode="&#58907;" d="M957.111 492.52c-3.927 11.67-14.447 19.864-26.724 20.816l-282.707 21.915-107.497 276.623c-4.586 11.804-15.951 19.58-28.615 19.58s-24.027-7.776-28.615-19.58l-107.495-276.623-282.709-21.915c-12.277-0.952-22.796-9.146-26.724-20.816-3.927-11.67-0.501-24.557 8.701-32.738l217.548-193.359-67.98-291.298c-2.849-12.207 2.010-24.92 12.274-32.114 10.265-7.196 23.873-7.428 34.376-0.586l240.624 156.709 240.625-156.709c5.099-3.321 10.929-4.974 16.753-4.974 6.174 0 12.342 1.858 17.623 5.562 10.264 7.195 15.122 19.907 12.274 32.114l-67.98 291.299 217.547 193.357c9.204 8.18 12.628 21.068 8.701 32.738z"  horiz-adv-x="1024" />

    
    <glyph glyph-name="xiangshang-copy" unicode="&#58885;" d="M257.186 254.441l255.934-318.623 255.967 318.622h-186.146v576.119h-139.613v-576.119z"  horiz-adv-x="1025" />

    
    <glyph glyph-name="xingxing1" unicode="&#58945;" d="M240.1536-38.540288c11.133952-7.635968 24.193024-11.515904 37.266432-11.515904 10.778624 0 21.543936 2.609152 31.296512 7.840768l203.25888 109.463552 203.298816-109.463552c9.781248-5.231616 20.559872-7.840768 31.296512-7.840768 13.060096 0 26.120192 3.879936 37.29408 11.515904 20.190208 13.947904 30.518272 37.854208 26.474496 61.70624l-39.616512 236.632064 170.909696 170.662912c16.925696 16.831488 22.718464 41.529344 15.012864 63.960064-7.732224 22.38976-27.6224 38.742016-51.56864 42.320896l-233.148416 34.684928L570.566656 781.815808c-10.628096 22.10304-33.46944 36.242432-58.591232 36.242432-25.039872 0-47.894528-14.139392-58.563584-36.242432l-101.336064-210.388992-233.160704-34.684928c-23.960576-3.57888-43.850752-19.931136-51.569664-42.320896-7.704576-22.43072-1.870848-47.128576 15.040512-63.960064l170.841088-170.662912-39.6288-236.632064C209.60768-0.68608 219.921408-24.592384 240.1536-38.540288zM118.477824 474.039296l232.410112 34.521088 40.887296 6.0928 17.949696 37.21216 102.264832 212.041728 102.250496-212.041728 17.964032-37.21216 40.887296-6.0928 232.410112-34.521088L736.012288 304.973824l-28.469248-28.40064 6.626304-39.629824 39.602176-236.193792L548.95616 110.908416l-37.008384 19.9168-37.006336-19.9168L270.12608 0.707584l39.602176 236.234752 6.626304 39.629824-28.470272 28.40064L118.477824 474.039296z"  horiz-adv-x="1024" />

    
    <glyph glyph-name="xingxing" unicode="&#58946;" d="M949.12 509.408c-4.864 15.008-17.856 25.952-33.44 28.192l-256.992 37.344-114.944 232.896c-6.976 14.144-21.376 23.104-37.152 23.104-15.776 0-30.176-8.96-37.152-23.104l-114.944-232.896L97.472 537.6c-15.616-2.272-28.576-13.184-33.44-28.192s-0.8-31.456 10.496-42.464l185.984-181.28-43.904-255.968c-2.656-15.552 3.712-31.264 16.48-40.544 12.768-9.28 29.664-10.496 43.648-3.136l229.888 120.864 229.856-120.864c6.048-3.168 12.672-4.768 19.264-4.768 8.576 0 17.152 2.656 24.352 7.904 12.768 9.28 19.136 24.992 16.48 40.544l-43.904 255.968 185.984 181.28C949.92 477.952 953.984 494.4 949.12 509.408z"  horiz-adv-x="1024" />

    
    <glyph glyph-name="weibo" unicode="&#58942;" d="M757.142721 394.599406c-39.591717 7.653307-20.312628 28.559453-20.312628 28.559453s38.734186 63.074547-7.748475 108.983133c-57.487296 56.781214-197.431581-7.147794-197.431581-7.147794-53.370535-16.314571-39.249933 7.482415-31.680537 47.948035 0 47.772027-16.524348 128.522142-158.877497 80.923054C198.914864 605.750453 76.868203 437.612035 76.868203 437.612035-7.990486 325.91714 3.20039 239.552144 3.20039 239.552144c21.168112-190.756555 226.526223-243.119133 386.265344-255.530814 168.005388-12.925381 394.875442 57.126069 463.552591 201.294562C921.87353 329.658348 796.904307 386.778276 757.142721 394.599406L757.142721 394.599406 757.142721 394.599406zM401.854902 37.745928c-166.79891-7.649214-301.746392 74.803683-301.746392 184.631044 0 110.0003 134.947482 198.066031 301.746392 205.720362 166.972872 7.648191 302.098409-60.3546 302.098409-170.011068C703.952288 148.42468 568.827775 45.22732 401.854902 37.745928L401.854902 37.745928 401.854902 37.745928zM368.636337 355.83452C200.803887 336.456171 220.253868 181.402769 220.253868 181.402769s-1.718131-49.133024 44.930305-74.125231c98.114598-52.534494 199.326744-20.739347 250.279207 44.37465C566.587758 216.595292 536.642748 375.051187 368.636337 355.83452L368.636337 355.83452 368.636337 355.83452zM326.291926 138.051425c-31.329543-3.568269-56.631812 14.286378-56.631812 40.127929 0 25.669636 22.372543 52.702316 53.702086 55.930847 35.980469 3.400446 59.387575-17.003256 59.387575-43.012629C382.923738 165.421796 357.447507 141.620717 326.291926 138.051425L326.291926 138.051425 326.291926 138.051425zM425.268148 221.186867c-10.673084-7.816013-23.750937-6.79987-29.265534 2.716878-5.847172 9.188266-3.613294 23.810289 7.059789 31.456433 12.394285 9.184173 25.303292 6.459109 30.981618-2.717901C439.558619 243.461173 435.596378 229.352851 425.268148 221.186867L425.268148 221.186867 425.268148 221.186867zM838.903863 461.752852c13.596669 0 24.959461 9.862625 27.027563 22.780843 0.171915 1.023306 0.336668 1.871627 0.336668 2.894933 20.48966 181.740204-150.95506 150.455687-150.95506 150.455687-15.146978 0-27.370371-12.06785-27.370371-27.370371 0-14.963807 12.223393-27.031657 27.370371-27.031657 123.07406 26.864858 96.051613-94.691639 96.051613-94.691639C811.194778 473.826841 823.585993 461.752852 838.903863 461.752852L838.903863 461.752852 838.903863 461.752852zM818.939159 778.997216c-59.214636 13.769608-120.323413 1.868557-137.364531-1.354857-1.379417-0.172939-2.579755-1.36816-3.78521-1.533936-0.51677-0.172939-1.033539-0.677429-1.033539-0.677429-16.865109-4.764514-29.089525-20.060895-29.089525-38.255279 0-21.589714 17.724687-39.438221 39.932478-39.438221 0 0 21.516036 2.888793 36.152385 8.498558 14.452153 5.77554 137.355321 4.246721 198.287065-96.737228 33.232892-73.785493 14.637372-123.091456 12.229532-131.079384 0 0-7.92039-19.215644-7.92039-38.08234 0-21.762653 17.73185-35.536354 39.932478-35.536354 18.421558 0 33.913391 2.550079 38.388309 33.32192l0.171915 0C1070.594713 653.527596 924.969031 754.684484 818.939159 778.997216L818.939159 778.997216 818.939159 778.997216z"  horiz-adv-x="1024" />

    
    <glyph glyph-name="facebook" unicode="&#58998;" d="M767.428571 889.142857v-150.857143H677.714286q-49.142857 0-66.285715-20.571428t-17.142857-61.714286v-108h167.428572l-22.285715-169.142857H594.285714v-433.714286H419.428571V378.857143H273.714286V548h145.714285V672.571429q0 106.285714 59.428572 164.857142T637.142857 896q84 0 130.285714-6.857143z"  horiz-adv-x="1024" />

    
    <glyph glyph-name="upblod" unicode="&#58883;" d="M766.815 513.559l-255.934 318.623-255.967-318.623h186.146v-576.12h139.613v576.12z"  horiz-adv-x="1025" />

    
    <glyph glyph-name="reddit" unicode="&#59508;" d="M938.666667 405.333333c0 59.733333-46.933333 106.666667-106.666667 106.666667-25.6 0-51.2-8.533333-68.266667-25.6-64 38.4-140.8 64-230.4 68.266667l46.933334 170.666666L725.333333 682.666667a85.333333 85.333333 0 0 1 85.333334-85.333334 85.333333 85.333333 0 0 1 85.333333 85.333334 85.333333 85.333333 0 0 1-85.333333 85.333333c-29.866667 0-59.733333-17.066667-72.533334-42.666667l-170.666666 42.666667c-12.8 4.266667-21.333333-4.266667-25.6-17.066667L490.666667 554.666667c-85.333333-4.266667-166.4-29.866667-230.4-68.266667-17.066667 17.066667-42.666667 25.6-68.266667 25.6C132.266667 512 85.333333 465.066667 85.333333 405.333333c0-38.4 17.066667-68.266667 46.933334-89.6l-4.266667-38.4c0-153.6 170.666667-277.333333 384-277.333333s384 123.733333 384 277.333333l-4.266667 38.4c29.866667 21.333333 46.933333 51.2 46.933334 89.6m-554.666667-12.8c29.866667 0 51.2-25.6 51.2-51.2s-21.333333-51.2-51.2-51.2-51.2 21.333333-51.2 51.2 21.333333 51.2 51.2 51.2m290.133333-230.4c-76.8-46.933333-247.466667-46.933333-324.266666 0-8.533333 8.533333-12.8 21.333333-4.266667 29.866667 8.533333 8.533333 21.333333 12.8 29.866667 4.266667 51.2-38.4 221.866667-38.4 273.066666 0 8.533333 8.533333 21.333333 4.266667 29.866667-4.266667 8.533333-8.533333 4.266667-21.333333-4.266667-29.866667m-34.133333 128c-29.866667 0-51.2 25.6-51.2 51.2 0 29.866667 25.6 51.2 51.2 51.2 29.866667 0 51.2-25.6 51.2-51.2 0-29.866667-21.333333-51.2-51.2-51.2z"  horiz-adv-x="1024" />

    
    <glyph glyph-name="telegram" unicode="&#59611;" d="M417.28 100.266667l11.946667 180.48 327.68 295.253333c14.506667 13.226667-2.986667 19.626667-22.186667 8.106667L330.24 328.533333 155.306667 384c-37.546667 10.666667-37.973333 36.693333 8.533333 55.466667l681.386667 262.826666c31.146667 14.08 61.013333-7.68 49.066666-55.466666l-116.053333-546.56c-8.106667-38.826667-31.573333-48.213333-64-30.293334L537.6 200.533333l-84.906667-82.346666c-9.813333-9.813333-17.92-17.92-35.413333-17.92z"  horiz-adv-x="1024" />

    
    <glyph glyph-name="sousuo" unicode="&#58937;" d="M982.109091 4.654545l-197.818182 197.818182c51.2 69.818182 81.454545 155.927273 81.454546 249.018182C865.745455 684.218182 677.236364 872.727273 444.509091 872.727273 211.781818 872.727273 23.272727 684.218182 23.272727 451.490909c0-232.727273 188.509091-421.236364 421.236364-421.236364 93.090909 0 179.2 30.254545 249.018182 81.454546l197.818182-197.818182c11.636364-11.636364 27.927273-18.618182 44.218181-18.618182s32.581818 6.981818 44.218182 18.618182c27.927273 25.6 27.927273 65.163636 2.327273 90.763636zM128 451.490909c0 174.545455 141.963636 318.836364 318.836364 318.836364 174.545455 0 318.836364-141.963636 318.836363-318.836364 0-174.545455-141.963636-318.836364-318.836363-318.836364S128 276.945455 128 451.490909z"  horiz-adv-x="1024" />

    
    <glyph glyph-name="facebook1" unicode="&#58895;" d="M735.5 826v-132H657q-43 0-58-18t-15-54v-94.5h146.5l-19.5-148H584V0H431V379.5H303.5v148H431v109q0 93 52 144.25T621.5 832q73.5 0 114-6z"  horiz-adv-x="1024" />

    
    <glyph glyph-name="twitter1" unicode="&#58910;" d="M882.78857421875 613.993200302124c-27.287721633911133-12.096977233886719-56.60319328308104-20.27750015258789-87.37864494323732-23.950624465942386 31.412744522094727 18.8291072845459 55.53717613220215 48.64282608032227 66.89257621765137 84.16900634765625-29.396581649780273-17.438650131225586-61.95645332336427-30.091810226440423-96.61359786987305-36.9166374206543-27.75120735168457 29.570388793945312-67.29812622070314 48.04029464721679-111.0511779785156 48.04029464721679-84.01837348937988 0-152.1391868591309-68.12081336975096-152.1391868591309-152.1391868591309 0-11.923170089721678 1.3441085815429688-23.53348731994629 3.9396286010742196-34.668731689453125-126.43890380859378 6.349754333496095-238.55609893798828 66.91575050354004-313.5944366455078 158.96401405334473-13.09347152709961-22.467470169067386-20.601940155029297-48.608064651489265-20.601940155029297-76.48673057556152 0-52.79102325439454 26.858997344970707-99.35975074768066 67.68050193786623-126.63588523864746-24.93553161621094 0.7879257202148438-48.399496078491204 7.635927200317383-68.90873908996582 19.02608871459961-0.011587142944335936-0.6372928619384766-0.011587142944335936-1.2745857238769531-0.011587142944335936-1.9118785858154297 0-73.71740341186523 52.44340896606445-135.1987838745117 122.04737663269043-149.1844654083252-12.769031524658205-3.4761428833007812-26.21011734008789-5.341672897338867-40.07992744445801-5.341672897338867-9.802722930908203 0-19.33894157409668 0.9617328643798828-28.620243072509773 2.7345657348632812 19.36211585998535-60.438537597656264 75.54817199707031-104.4349193572998 142.12789535522464-105.65156936645509-52.0726203918457-40.809917449951165-117.66743659973145-65.13133049011232-188.95153999328613-65.13133049011232-12.282371520996094 0-24.39093589782715 0.7184028625488281-36.290931701660156 2.1320343017578125 67.33288764953613-43.1736946105957 147.30734825134275-68.36414337158203 233.22601318359375-68.36414337158203 279.84108924865717 0 432.8724861145019 231.83555603027344 432.8724861145019 432.8840732574463 0 6.593084335327148-0.1506328582763672 13.162994384765625-0.4403114318847655 19.686555862426758 29.73260879516601 21.44780158996582 55.5255889892578 48.24886322021484 75.91896057128906 78.75781059265137z"  horiz-adv-x="1025" />

    
    <glyph glyph-name="wechat-light" unicode="&#58886;" d="M512-59.73333333333335C266.93333333333334-59.73333333333335 68.26666666666665 138.9333333333334 68.26666666666665 384S266.93333333333334 827.7333333333333 512 827.7333333333333s443.73333333333335-198.66666666666666 443.73333333333335-443.73333333333335-198.66666666666666-443.73333333333335-443.73333333333335-443.73333333333335z m-84.65066666666667 680.9599999999999c-113.89226666666667 0-207.18933333333334-77.2416-207.18933333333334-175.328 0-56.61653333333334 31.039999999999996-103.10826666666667 82.90666666666667-139.168l-20.722133333333332-62.016L354.77333333333337 280.85333333333324c25.917866666666665-5.104 46.71146666666667-10.351999999999999 72.57386666666666-10.351999999999999 6.5024 0 12.949333333333334 0.32 19.341866666666665 0.8192-4.045866666666667 13.783466666666667-6.392533333333334 28.219733333333334-6.392533333333334 43.197866666666656 0.0010666666666666667 90.06400000000001 77.73333333333333 163.1552 176.15146666666666 163.1552 6.715733333333333 0 13.361066666666666-0.48960000000000004 19.950933333333335-1.2202666666666666C618.4725333333333 559.5136 529.2224 621.2266666666667 427.3493333333334 621.2266666666667z m202.20906666666667-154.62933333333334c-98.58026666666665 0-176.21973333333332-67.18293333333334-176.21973333333332-149.6032 0-82.56106666666666 77.6416-149.6 176.21973333333332-149.6 20.6336 0 41.443200000000004 5.175466666666667 62.167466666666655 10.343466666666666L748.5546666666667 146.7733333333333l-15.580799999999998 51.519999999999996c41.586133333333336 31.043200000000002 72.5728 72.21013333333333 72.5728 118.7008 0 82.42133333333332-82.89066666666666 149.6032-175.98826666666668 149.6032z m56.828799999999994-123.80693333333333c-10.245333333333333 0-20.5792 10.2112-20.5792 20.627200000000002 0 10.272 10.333866666666667 20.616533333333333 20.5792 20.616533333333333 15.528533333333334 0 25.934933333333333-10.344533333333334 25.934933333333333-20.616533333333333 0-10.416-10.4064-20.627200000000002-25.934933333333333-20.627200000000002z m-113.96479999999998 0c-10.3168 0-20.722133333333332 10.2112-20.722133333333332 20.627200000000002 0 10.272 10.405333333333335 20.616533333333333 20.722133333333332 20.616533333333333 15.67253333333333 0 25.937066666666666-10.344533333333334 25.937066666666666-20.616533333333333 0-10.416-10.264533333333333-20.627200000000002-25.937066666666666-20.627200000000002zM505.0453333333334 482.0373333333334c-15.530666666666667 0-31.1104 10.3552-31.1104 25.8048 0 15.515733333333332 15.579733333333333 25.726933333333328 31.1104 25.726933333333328 15.598933333333333 0 25.934933333333333-10.213333333333333 25.934933333333333-25.726933333333328 0-15.4496-10.335999999999999-25.8048-25.934933333333333-25.8048z m-145.00480000000002 0.0021333333333333334c-15.527466666666667 0-31.2 10.353066666666667-31.2 25.8048 0 15.513599999999999 15.67253333333333 25.724800000000002 31.2 25.724800000000002 15.528533333333334 0 25.864533333333334-10.2112 25.864533333333334-25.724800000000002 0-15.451733333333333-10.335999999999999-25.8048-25.864533333333334-25.8048z"  horiz-adv-x="1024" />

    
    <glyph glyph-name="down-trangle-copy" unicode="&#58881;" d="M536.37627522 175.02932196999996l369.13327878 369.1332788c14.11285224 14.11285224 14.11285224 37.87962372 0 52.7336945-14.11285224 14.11285224-37.87962372 14.11285224-52.73369447 0l-343.13639516-343.13639515-341.64879284 341.64879282c-14.11285224 14.11285224-37.87962372 14.11285224-52.73369447 0-14.11285224-14.11285224-14.11285224-37.87962372 0-52.73369447l367.64309383-367.64309384c15.59528928-14.85277944 38.62084225-14.85277945 53.48395225 0Z"  horiz-adv-x="1024" />

    
    <glyph glyph-name="een" unicode="&#58882;" d="M566.068941 118.07546500000001L566.068941 118.07546500000001c-14.174837-14.05204101-33.873482-22.269189-54.00498499-22.269189l0 0c-20.26248599 0-39.896662 8.216125-54.13596801 22.269189l-369.966123 370.09506 0 0c-29.865191 29.858028-29.865191 78.347392 0 108.204397l0 0c29.913287 29.79356 78.218456 29.79356 108.075461 0L512.063957 280.53657999999996 827.836807 596.374922l0 0c29.984918 29.797653 78.285994 29.797653 108.204397-0.127913l0 0c29.863145-29.730115 29.863145-78.219479 0-108.076484L566.068941 118.07546500000001 566.068941 118.07546500000001zM566.068941 118.07546500000001"  horiz-adv-x="1024" />

    
    <glyph glyph-name="gmail" unicode="&#58909;" d="M1024 704v-640c0-36.266667-27.733333-64-64-64H896V580.821333l-384-275.754666-384 275.754666V0H64C27.690667 0 0 27.733333 0 64v640c0 18.133333 6.912 34.133333 18.389333 45.568A63.36 63.36 0 0 0 64 768H85.333333l426.666667-309.333333L938.666667 768h21.333333c18.133333 0 34.133333-6.912 45.610667-18.432 11.52-11.434667 18.389333-27.434667 18.389333-45.568z"  horiz-adv-x="1024" />

    
    <glyph glyph-name="instagram" unicode="&#59519;" d="M512 589.1c-113.5 0-205.1-91.6-205.1-205.1S398.5 178.9 512 178.9 717.1 270.5 717.1 384 625.5 589.1 512 589.1z m0-338.4c-73.4 0-133.3 59.9-133.3 133.3S438.6 517.3 512 517.3 645.3 457.4 645.3 384 585.4 250.7 512 250.7zM725.5 645.3c-26.5 0-47.9-21.4-47.9-47.9s21.4-47.9 47.9-47.9 47.9 21.3 47.9 47.9c-0.1 26.6-21.4 47.9-47.9 47.9zM911.8 384c0 55.2 0.5 109.9-2.6 165-3.1 64-17.7 120.8-64.5 167.6-46.9 46.9-103.6 61.4-167.6 64.5-55.2 3.1-109.9 2.6-165 2.6-55.2 0-109.9 0.5-165-2.6-64-3.1-120.8-17.7-167.6-64.5C132.6 669.7 118.1 613 115 549c-3.1-55.2-2.6-109.9-2.6-165s-0.5-109.9 2.6-165c3.1-64 17.7-120.8 64.5-167.6 46.9-46.9 103.6-61.4 167.6-64.5 55.2-3.1 109.9-2.6 165-2.6 55.2 0 109.9-0.5 165 2.6 64 3.1 120.8 17.7 167.6 64.5 46.9 46.9 61.4 103.6 64.5 167.6 3.2 55.1 2.6 109.8 2.6 165z m-88-235.8c-7.3-18.2-16.1-31.8-30.2-45.8-14.1-14.1-27.6-22.9-45.8-30.2C695.2 51.3 570.3 56 512 56c-58.3 0-183.3-4.7-235.9 16.1-18.2 7.3-31.8 16.1-45.8 30.2-14.1 14.1-22.9 27.6-30.2 45.8C179.3 200.8 184 325.7 184 384c0 58.3-4.7 183.3 16.1 235.9 7.3 18.2 16.1 31.8 30.2 45.8s27.6 22.9 45.8 30.2C328.7 716.7 453.7 712 512 712s183.3 4.7 235.9-16.1c18.2-7.3 31.8-16.1 45.8-30.2 14.1-14.1 22.9-27.6 30.2-45.8C844.7 567.3 840 442.3 840 384c0-58.3 4.7-183.2-16.2-235.8z"  horiz-adv-x="1024" />

    
    <glyph glyph-name="steemit" unicode="&#59072;" d="M827.92801431 551.8572927299999c-31.59280151 31.59280151-73.7165366 57.92013584-121.10573886 78.98200378 26.32733432 73.7165366 115.84027166 100.04387091 115.84027167 100.04387091S612.04387091 841.45797189 380.36332758 794.06877044C306.64679098 783.53783606 232.9302544 736.1486346199999 175.01011856 672.96303158 59.16984689 541.32635916 74.96624765 335.97315015000004 206.60292007 220.13287848000004h5.26546638c21.06186795-15.79640076 68.4510694-47.38920227 68.45107022-47.38920227-31.59280151-84.24747016-126.37120522-105.30933811-126.37120606-105.3093381s131.63667242-78.98200378 305.39708074-100.04387092c47.38920227-5.26546719 94.77840454-5.26546719 147.43307319 0 78.98200378 5.26546719 163.22947394 47.38920227 221.14960977 110.57480447 131.63667242 126.37120522 131.63667242 342.25534863 0 473.89202107z m-57.92013582-426.50281879c-47.38920227-47.38920227-121.10573887-78.98200378-179.02587471-84.24747016-42.12373507-5.26546719-84.24747016-5.26546719-126.37120605 0-63.18560303 5.26546719-105.30933811 26.32733432-147.43307317 42.12373509 21.06186795 21.06186795 42.12373507 52.65466865 52.65466946 73.71653658 5.26546719 15.79640076 5.26546719 31.59280151 0 47.38920227-47.38920227 94.77840454-26.32733432 210.61867621 52.65466863 284.33521197 52.65466865 52.65466865 131.63667242 78.98200378 210.61867622 68.45107022 57.92013584-5.26546719 110.57480529-31.59280151 147.43307317-73.71653658 89.51293735-94.77840454 84.24747016-258.00787848-10.53093355-358.05174939z"  horiz-adv-x="1024" />

    
    <glyph glyph-name="medium" unicode="&#59420;" d="M834.7 616.2l61.3 58.9V688H683.7L532.4 309.6 360.3 688H137.7v-12.9l71.6-86.6c7-6.4 10.6-15.8 9.7-25.2V223c2.2-12.3-1.7-24.8-10.3-33.7L128 91v-12.7h228.6v12.9l-80.6 98c-8.7 8.9-12.9 21.3-11.1 33.7V517.3l200.7-439.2h23.3l172.6 439.2v-349.9c0-9.2 0-11.1-6-17.2l-62.1-60.3V77h301.2v12.9l-59.9 58.9c-5.2 4-7.9 10.7-6.8 17.2V599c-1.1 6.5 1.6 13.2 6.8 17.2z"  horiz-adv-x="1024" />

    
    <glyph glyph-name="guanbi" unicode="&#58916;" d="M578.72 372.96000000000004L930.56 724.8c17.76 17.76 17.76 47.04 0 64.8l-1.92 1.92c-17.76 17.76-47.04 17.76-64.8 0L512 439.2 160.16 791.52c-17.76 17.76-47.04 17.76-64.8 0l-1.92-1.92C75.2 771.84 75.2 742.56 93.44 724.8l351.84-351.84-351.84-351.84c-17.76-17.76-17.76-47.04 0-64.8l1.92-1.92c17.76-17.76 47.04-17.76 64.8 0l351.84 351.84 351.84-351.84c17.76-17.76 47.04-17.76 64.8 0l1.92 1.92c17.76 17.76 17.76 47.04 0 64.8l-351.84 351.84z"  horiz-adv-x="1024" />

    
    <glyph glyph-name="wechat" unicode="&#58911;" d="M664.25 527.458c10.015 0 19.892-0.732 29.673-1.796-26.648 122.81-159.359 214.078-310.826 214.078-169.353 0-308.086-114.233-308.086-259.274 0-83.708 46.165-152.46 123.282-205.785l-30.809-91.73 107.689 53.455c38.558-7.536 69.46-15.308 107.924-15.308 9.663 0 19.23 0.47 28.753 1.226-6.026 20.366-9.522 41.723-9.522 63.862 0 133.182 115.58 241.272 261.922 241.272zM498.63 610.126c23.2 0 38.557-15.12 38.557-38.062 0-22.846-15.357-38.156-38.557-38.156-23.107 0-46.26 15.31-46.26 38.156 0 22.942 23.154 38.062 46.26 38.062zM283.016 533.91c-23.107 0-46.403 15.31-46.403 38.156 0 22.942 23.296 38.062 46.403 38.062 23.082 0 38.463-15.12 38.463-38.062 0-22.847-15.381-38.156-38.463-38.156z m662.432-244.06c0 121.888-123.258 221.236-261.683 221.236-146.579 0-262.016-99.348-262.016-221.236 0-122.065 115.437-221.201 262.016-221.201 30.666 0 61.617 7.609 92.423 15.262l84.514-45.786-23.179 76.17c61.856 45.93 107.925 106.804 107.925 175.555z m-346.645 38.157c-15.332 0-30.807 15.097-30.807 30.501 0 15.191 15.475 30.478 30.807 30.478 23.296 0 38.559-15.287 38.559-30.478 0-15.404-15.263-30.501-38.559-30.501z m169.448 0c-15.214 0-30.595 15.097-30.595 30.501 0 15.191 15.381 30.478 30.595 30.478 23.107 0 38.558-15.287 38.558-30.478 0-15.404-15.451-30.501-38.558-30.501z"  horiz-adv-x="1024" />

    
    <glyph glyph-name="xialajiantouxiangxia" unicode="&#58884;" d="M206.4796294 547.19981637l305.40121765-290.13130954L817.28206471 547.19981637z"  horiz-adv-x="1024" />

    
    <glyph glyph-name="jiaoyi" unicode="&#58888;" d="M512 896a512 512 0 1 1 512-512 512 512 0 0 1-512 512z m0-993.28A481.28 481.28 0 1 0 993.28 384 482.56 482.56 0 0 0 512-97.28zM588.16 576A14.72 14.72 0 0 1 576 585.6H201.6a15.36 15.36 0 0 1 0-30.72h334.72L192 208.64a16 16 0 0 1 0-21.76 14.72 14.72 0 0 1 10.88-4.48 14.08 14.08 0 0 1 10.88 4.48l371.2 372.48A14.72 14.72 0 0 1 588.16 576zM832 581.12a14.72 14.72 0 0 1-21.76 0l-371.2-372.48a15.36 15.36 0 0 1 10.88-26.24h372.48a15.36 15.36 0 0 1 0 30.72H487.68L832 559.36a16 16 0 0 1 0 21.76z"  horiz-adv-x="1024" />

    
    <glyph glyph-name="qian" unicode="&#58889;" d="M512 896a512 512 0 1 1 512-512 512 512 0 0 1-512 512z m0-993.28A481.28 481.28 0 1 0 993.28 384 482.56 482.56 0 0 0 512-97.28zM726.4 667.52L512 456.32l-214.4 211.2a17.28 17.28 0 0 1-23.04 0 16.64 16.64 0 0 1 0-23.04L474.88 448h-172.8a16 16 0 1 1 0-32h192V256h-192a16 16 0 1 1 0-32h192v-112a16 16 0 0 1 32 0V224h192a16 16 0 0 1 0 32h-192V416h192a16 16 0 0 1 0 32H549.12l200.32 196.48a16 16 0 1 1-23.04 23.04z"  horiz-adv-x="1024" />

    
    <glyph glyph-name="qianbao" unicode="&#58890;" d="M941.562209 697.740519h-49.735196v115.82169A82.437791 82.437791 0 0 1 809.389222 896H115.82169A115.82169 115.82169 0 0 1 0 780.17831v-759.654025a149.205589 149.205589 0 0 1 148.524285-148.524285h793.037924A149.205589 149.205589 0 0 1 1090.086494 20.524285V549.216234a149.205589 149.205589 0 0 1-148.524285 148.524285zM115.82169 861.934797h693.567532a49.735196 49.735196 0 0 0 49.735196-49.735196v-115.82169H115.82169A83.119095 83.119095 0 1 0 115.82169 861.934797z m941.562209-841.410512a116.502994 116.502994 0 0 0-115.82169-115.82169H148.524285a116.502994 116.502994 0 0 0-115.82169 115.82169v681.304058a114.459082 114.459082 0 0 1 83.119095-34.746507h825.740519a116.502994 116.502994 0 0 0 115.82169-115.82169zM808.707917 398.648037A115.82169 115.82169 0 1 1 925.210912 282.826347a115.82169 115.82169 0 0 1-116.502995 115.82169z m0-204.391217A87.206919 87.206919 0 1 0 895.914837 282.826347a87.888224 87.888224 0 0 0-87.20692-87.206919z"  horiz-adv-x="1090" />

    
    <glyph glyph-name="tongji" unicode="&#58891;" d="M884.053333 896H139.946667a139.946667 139.946667 0 0 1-136.533334-139.946667v-744.106666a139.946667 139.946667 0 0 1 136.533334-139.946667h744.106666A139.946667 139.946667 0 0 1 1024 11.946667V756.053333A139.946667 139.946667 0 0 1 884.053333 896z m109.226667-887.466667a109.226667 109.226667 0 0 0-109.226667-109.226666H139.946667A109.226667 109.226667 0 0 0 34.133333 11.946667V756.053333A109.226667 109.226667 0 0 0 139.946667 861.866667h744.106666a109.226667 109.226667 0 0 0 109.226667-109.226667zM747.52 452.266667L574.122667 220.16 400.042667 452.266667a16.384 16.384 0 0 1-24.576 0l-186.368-245.077334a16.384 16.384 0 0 1 0-21.845333 15.018667 15.018667 0 0 1 8.874666 0 17.066667 17.066667 0 0 1 12.970667 6.144l176.810667 228.693333 174.08-231.424a15.018667 15.018667 0 0 1 24.576 0l186.368 247.808a15.701333 15.701333 0 0 1-3.413334 21.845334 15.701333 15.701333 0 0 1-21.845333-6.144zM822.613333 520.533333H574.122667a15.701333 15.701333 0 0 1-15.701334-15.701333 15.701333 15.701333 0 0 1 15.701334-15.701333h232.789333v-229.376a15.701333 15.701333 0 1 1 30.72 0V508.245333a15.701333 15.701333 0 0 1-15.018667 12.288z"  horiz-adv-x="1024" />

    
    <glyph glyph-name="anquan" unicode="&#58892;" d="M510.72 896l-448-176v-354.56c0-3.84 104.32-395.52 443.52-493.44h8.32a682.88 682.88 0 0 1 448 496v352z m0-992C203.52-5.76 100.48 343.68 92.8 371.84V698.88L510.72 862.72l417.92-163.84v-325.76a653.44 653.44 0 0 0-417.92-469.12zM747.52 580.48L446.72 281.6l-172.8 174.72a15.36 15.36 0 0 1-19.2-21.76l185.6-185.6a14.72 14.72 0 0 1 10.88-4.48 14.08 14.08 0 0 1 10.88 4.48l304.64 309.76a15.36 15.36 0 0 1-21.76 21.76z"  horiz-adv-x="1024" />

    
    <glyph glyph-name="time" unicode="&#58894;" d="M512 896C229.376 896 0 666.624 0 384s229.376-512 512-512 512 229.376 512 512S794.624 896 512 896z m284.672-531.456h-281.6c-10.24 0.512-18.944 8.704-19.456 19.456V729.6c0 10.752 8.704 19.456 19.456 19.456h1.536c10.24-0.512 18.432-8.704 17.92-19.456v-326.656h262.656c10.752 0 19.456-8.704 19.456-19.456-1.024-9.728-9.216-18.432-19.968-18.944z"  horiz-adv-x="1024" />

    
    <glyph glyph-name="upload" unicode="&#58896;" d="M512 179.2H0v-274.285714h1024v274.285714H512z m442.514286-135.314286h-135.314286v69.485715h135.314286v-69.485715zM237.714286 588.8L512 863.085714l274.285714-274.285714h-171.885714v-340.114286h-204.8V588.8H237.714286z"  horiz-adv-x="1024" />

    
    <glyph glyph-name="passport" unicode="&#58897;" d="M338.895238 162.133333h153.6V-54.857143c-63.390476 14.628571-121.904762 97.52381-153.6 216.990476zM404.72381-42.666667c-114.590476 29.257143-212.114286 104.838095-270.628572 204.8h168.228572c21.942857-90.209524 56.07619-160.914286 102.4-204.8zM331.580952 198.704762c-9.752381 51.2-17.066667 107.27619-19.504762 168.228571h180.419048v-168.228571h-160.914286zM312.07619 401.066667c0 60.952381 7.314286 117.028571 19.504762 168.228571h163.352381v-168.228571h-182.857143zM338.895238 605.866667C370.590476 725.333333 429.104762 808.228571 494.933333 822.857143v-216.990476h-156.038095zM302.32381 605.866667h-170.666667c58.514286 99.961905 156.038095 175.542857 270.628571 204.8-43.885714-43.885714-78.019048-117.028571-99.961904-204.8zM292.571429 569.295238c-9.752381-51.2-17.066667-107.27619-17.066667-168.228571H73.142857c2.438095 60.952381 17.066667 117.028571 41.447619 168.228571H292.571429zM275.504762 366.933333c0-60.952381 7.314286-117.028571 17.066667-168.228571H114.590476c-24.380952 51.2-39.009524 107.27619-41.447619 168.228571h202.361905zM619.27619 810.666667c114.590476-29.257143 212.114286-104.838095 270.628572-204.8h-168.228572c-21.942857 87.771429-56.07619 160.914286-102.4 204.8zM892.342857 162.133333c-58.514286-99.961905-156.038095-175.542857-270.628571-204.8 43.885714 43.885714 80.457143 114.590476 102.4 204.8h168.228571zM685.104762 605.866667h-153.6V822.857143c63.390476-14.628571 121.904762-97.52381 153.6-216.990476zM692.419048 569.295238c9.752381-51.2 17.066667-107.27619 19.504762-168.228571h-180.419048v168.228571h160.914286zM711.92381 366.933333c0-60.952381-7.314286-117.028571-19.504762-168.228571h-163.352381v168.228571h182.857143zM685.104762 162.133333c-31.695238-119.466667-87.771429-202.361905-153.6-214.552381v214.552381h153.6zM909.409524 198.704762H731.428571c9.752381 51.2 17.066667 107.27619 17.066667 168.228571H950.857143c-2.438095-60.952381-17.066667-117.028571-41.447619-168.228571zM748.495238 401.066667c0 60.952381-7.314286 117.028571-17.066667 168.228571h180.419048c24.380952-51.2 39.009524-107.27619 41.447619-168.228571h-204.8z"  horiz-adv-x="1024" />

    
    <glyph glyph-name="user" unicode="&#58898;" d="M950.857143 32.914286c0-34.133333-29.257143-63.390476-63.390476-63.390476H136.533333C102.4-30.47619 73.142857-3.657143 73.142857 32.914286v95.085714c0 26.819048 17.066667 51.2 43.885714 60.952381l263.314286 82.895238c-56.07619 68.266667-92.647619 175.542857-92.647619 275.504762C290.133333 698.514286 377.904762 798.47619 512 798.47619s221.866667-97.52381 221.866667-251.123809c0-99.961905-34.133333-209.67619-92.647619-275.504762L906.971429 188.952381c26.819048-7.314286 43.885714-31.695238 43.885714-60.952381v-95.085714z"  horiz-adv-x="1024" />

    
    <glyph glyph-name="drive" unicode="&#58899;" d="M512 822.857143C270.628571 822.857143 73.142857 625.371429 73.142857 384s197.485714-438.857143 438.857143-438.857143 438.857143 197.485714 438.857143 438.857143S753.371429 822.857143 512 822.857143z m-80.457143-704.609524c0-95.085714-4.87619-99.961905-92.647619-51.2-90.209524 48.761905-148.72381 124.342857-177.980952 224.304762-7.314286 26.819048-7.314286 39.009524 29.257143 43.885714 41.447619 4.87619 80.457143 7.314286 119.466666 9.752381 73.142857 2.438095 119.466667-43.885714 119.466667-117.028571 2.438095-24.380952 2.438095-97.52381 2.438095-109.714286z m-268.190476 348.647619c43.885714 170.666667 182.857143 275.504762 351.085714 275.504762 165.790476 0 304.761905-107.27619 346.209524-275.504762-231.619048 43.885714-463.238095 46.32381-697.295238 0zM633.904762 42.666667c-31.695238-12.190476-43.885714-4.87619-41.447619 29.257143v85.333333c0 170.666667 29.257143 197.485714 199.923809 180.419047 87.771429-9.752381 87.771429-12.190476 53.638096-92.647619-41.447619-97.52381-114.590476-163.352381-212.114286-202.361904z"  horiz-adv-x="1024" />

    
    <glyph glyph-name="time-copy" unicode="&#59612;" d="M512 896a512 512 0 1 1 512-512 512 512 0 0 1-512 512z m0-985.6A473.6 473.6 0 1 0 985.6 384 474.24 474.24 0 0 0 512-89.60000000000002zM796.8 403.2h-262.4V729.6a18.56 18.56 0 0 1-19.2 19.2 19.2 19.2 0 0 1-19.2-19.2V384a19.84 19.84 0 0 1 19.2-19.2h281.6a19.84 19.84 0 0 1 19.2 19.2 19.2 19.2 0 0 1-19.2 19.2z"  horiz-adv-x="1024" />

    


  </font>
</defs>
</svg>
